<svg width="1107" height="276" viewBox="0 0 1107 276" fill="none" xmlns="http://www.w3.org/2000/svg">
<g filter="url(#filter0_d_151_10)">
<path d="M308.2 194V185.4L325.2 181.4V110.2H308.2V101.6L340.2 94H349V103C359.267 95 369.8 91 380.6 91C394.333 91 404.067 96.0667 409.8 106.2C421.533 96.0667 433.467 91 445.6 91C455.867 91 463.933 93.9333 469.8 99.8C475.8 105.667 478.8 113.2 478.8 122.4V181.4L495.8 185.4V194H442V185.4L455 181.4V125C455 118.733 453.467 113.933 450.4 110.6C447.467 107.267 443.267 105.6 437.8 105.6C429.933 105.6 421.733 108.667 413.2 114.8C413.733 118 414 120.533 414 122.4V181.4L427 185.4V194H377V185.4L390 181.4V125C390 118.733 388.467 113.933 385.4 110.6C382.467 107.267 378.267 105.6 372.8 105.6C365.333 105.6 357.4 108.4 349 114V181.4L362 185.4V194H308.2ZM484.666 142.8C484.666 128.133 488.866 115.867 497.266 106C505.666 96 517.266 91 532.066 91C539.799 91 546.532 92.4667 552.266 95.4C558.132 98.2 562.732 102.133 566.066 107.2C569.532 112.267 572.066 117.933 573.666 124.2C575.266 130.467 576.066 137.267 576.066 144.6H508.466C509.399 155.533 513.066 164.867 519.466 172.6C525.866 180.2 534.599 184 545.666 184C552.732 184 560.399 182.467 568.666 179.4L572.066 188.8C559.666 194.267 547.866 197 536.666 197C520.532 197 507.799 191.733 498.466 181.2C489.266 170.667 484.666 157.867 484.666 142.8ZM508.466 134.8L551.266 131.6C550.866 123.6 548.999 116.667 545.666 110.8C542.332 104.933 537.599 102 531.466 102C524.799 102 519.332 105.133 515.066 111.4C510.932 117.667 508.732 125.467 508.466 134.8ZM568.692 194V185.4L585.692 181.4V110.2H568.692V101.6L600.692 94H609.492V103C619.759 95 630.292 91 641.092 91C654.826 91 664.559 96.0667 670.292 106.2C682.026 96.0667 693.959 91 706.092 91C716.359 91 724.426 93.9333 730.292 99.8C736.292 105.667 739.292 113.2 739.292 122.4V181.4L756.292 185.4V194H702.492V185.4L715.492 181.4V125C715.492 118.733 713.959 113.933 710.892 110.6C707.959 107.267 703.759 105.6 698.292 105.6C690.426 105.6 682.226 108.667 673.692 114.8C674.226 118 674.492 120.533 674.492 122.4V181.4L687.492 185.4V194H637.492V185.4L650.492 181.4V125C650.492 118.733 648.959 113.933 645.892 110.6C642.959 107.267 638.759 105.6 633.292 105.6C625.826 105.6 617.892 108.4 609.492 114V181.4L622.492 185.4V194H568.692ZM796.158 91C810.824 91 822.958 96 832.558 106C842.158 115.867 846.958 128.467 846.958 143.8C846.958 159.267 842.158 172 832.558 182C822.958 192 810.824 197 796.158 197C781.491 197 769.291 192 759.558 182C749.958 172 745.158 159.267 745.158 143.8C745.158 128.467 749.958 115.867 759.558 106C769.291 96 781.491 91 796.158 91ZM796.158 102C787.891 102 781.491 105.8 776.958 113.4C772.558 121 770.358 131.133 770.358 143.8C770.358 156.467 772.558 166.667 776.958 174.4C781.491 182.133 787.891 186 796.158 186C804.424 186 810.758 182.133 815.158 174.4C819.691 166.533 821.958 156.333 821.958 143.8C821.958 131.133 819.691 121 815.158 113.4C810.758 105.8 804.424 102 796.158 102ZM840.513 194V185.4L857.513 181.4V110.2H840.513V101.6L872.513 94H881.313V103C891.579 95 902.113 91 912.913 91C926.646 91 936.379 96.0667 942.113 106.2C953.846 96.0667 965.779 91 977.913 91C988.179 91 996.246 93.9333 1002.11 99.8C1008.11 105.667 1011.11 113.2 1011.11 122.4V181.4L1028.11 185.4V194H974.313V185.4L987.313 181.4V125C987.313 118.733 985.779 113.933 982.713 110.6C979.779 107.267 975.579 105.6 970.113 105.6C962.246 105.6 954.046 108.667 945.513 114.8C946.046 118 946.312 120.533 946.312 122.4V181.4L959.313 185.4V194H909.313V185.4L922.313 181.4V125C922.313 118.733 920.779 113.933 917.713 110.6C914.779 107.267 910.579 105.6 905.113 105.6C897.646 105.6 889.713 108.4 881.313 114V181.4L894.313 185.4V194H840.513ZM1059.98 63.6C1059.98 67.7333 1058.51 71.2667 1055.58 74.2C1052.78 77 1049.31 78.4 1045.18 78.4C1041.04 78.4 1037.51 77 1034.58 74.2C1031.78 71.2667 1030.38 67.7333 1030.38 63.6C1030.38 59.4667 1031.78 56 1034.58 53.2C1037.51 50.2667 1041.04 48.8 1045.18 48.8C1049.31 48.8 1052.78 50.2 1055.58 53C1058.51 55.8 1059.98 59.3333 1059.98 63.6ZM1015.78 194V185.4L1032.78 181.4V110.2H1015.78V101.6L1047.78 94H1056.58V181.4L1073.58 185.4V194H1015.78Z" fill="white"/>
</g>
<g filter="url(#filter1_d_151_10)">
<rect width="163.381" height="168.645" transform="matrix(0.995332 -0.0965123 0.107138 0.994244 4 30.7683)" fill="#D9D9D9"/>
<rect width="151.431" height="135.191" transform="matrix(0.995332 -0.0965123 0.107138 0.994244 10.2412 35.9385)" fill="#5B717F"/>
<rect width="163.154" height="168.904" transform="matrix(0.982662 0.185407 -0.205217 0.978716 92.6621 72)" fill="#D9D9D9"/>
<rect width="151.221" height="135.399" transform="matrix(0.982662 0.185407 -0.205217 0.978716 97.7737 78.5593)" fill="#BA9E6C"/>
<path fill-rule="evenodd" clip-rule="evenodd" d="M147.404 203.106C160.366 207.187 179.212 197.302 192.185 178.694C206.855 157.651 208.461 133.42 195.771 124.573C188.217 119.307 177.301 120.679 166.608 127.09C160.411 116.339 151.584 109.857 142.452 110.76C127.058 112.282 116.624 134.21 119.148 159.737C121.441 182.933 133.644 201.12 147.404 203.106Z" fill="#836968"/>
</g>
<defs>
<filter id="filter0_d_151_10" x="275.6" y="20.2001" width="830.578" height="213.4" filterUnits="userSpaceOnUse" color-interpolation-filters="sRGB">
<feFlood flood-opacity="0" result="BackgroundImageFix"/>
<feColorMatrix in="SourceAlpha" type="matrix" values="0 0 0 0 0 0 0 0 0 0 0 0 0 0 0 0 0 0 127 0" result="hardAlpha"/>
<feOffset dy="4"/>
<feGaussianBlur stdDeviation="16.3"/>
<feComposite in2="hardAlpha" operator="out"/>
<feColorMatrix type="matrix" values="0 0 0 0 0 0 0 0 0 0 0 0 0 0 0 0 0 0 0.25 0"/>
<feBlend mode="normal" in2="BackgroundImageFix" result="effect1_dropShadow_151_10"/>
<feBlend mode="normal" in="SourceGraphic" in2="effect1_dropShadow_151_10" result="shape"/>
</filter>
<filter id="filter1_d_151_10" x="0" y="15" width="256.988" height="260.559" filterUnits="userSpaceOnUse" color-interpolation-filters="sRGB">
<feFlood flood-opacity="0" result="BackgroundImageFix"/>
<feColorMatrix in="SourceAlpha" type="matrix" values="0 0 0 0 0 0 0 0 0 0 0 0 0 0 0 0 0 0 127 0" result="hardAlpha"/>
<feOffset dy="4"/>
<feGaussianBlur stdDeviation="2"/>
<feComposite in2="hardAlpha" operator="out"/>
<feColorMatrix type="matrix" values="0 0 0 0 0 0 0 0 0 0 0 0 0 0 0 0 0 0 0.35 0"/>
<feBlend mode="normal" in2="BackgroundImageFix" result="effect1_dropShadow_151_10"/>
<feBlend mode="normal" in="SourceGraphic" in2="effect1_dropShadow_151_10" result="shape"/>
</filter>
</defs>
</svg>
